<svg width="140" height="45" viewBox="0 0 140 45" fill="none" xmlns="http://www.w3.org/2000/svg">
<g clip-path="url(#clip0_288_264)">
<mask id="path-1-outside-1_288_264" maskUnits="userSpaceOnUse" x="0" y="26" width="140" height="19" fill="black">
<rect fill="white" y="26" width="140" height="19"/>
<path d="M16.6343 40.8972C16.6343 42.024 16.7282 42.8613 16.916 43.409C16.5874 43.6907 16.2196 43.8316 15.8127 43.8316C15.5154 43.8316 15.2728 43.7377 15.085 43.5499C14.8972 43.3621 14.8033 43.1117 14.8033 42.7987L14.7563 29.5822L9.61532 41.0146C9.23972 41.1554 8.89542 41.2258 8.58242 41.2258C8.30072 41.2258 8.05032 41.1711 7.83122 41.0615C6.06277 37.7124 4.21607 33.9095 2.29112 29.6527L2.3146 40.8972C2.3146 42.0709 2.41632 42.9552 2.61977 43.5499C2.40067 43.7377 2.14245 43.8316 1.8451 43.8316C1.39125 43.8316 1.16433 43.542 1.16433 42.963L1.14085 29.9813C1.14085 28.8702 1.0939 28.0016 1 27.3756C1.1878 27.1878 1.60252 27.0939 2.24417 27.0939C2.66672 27.0939 2.99537 27.2191 3.23012 27.4695L5.17855 31.5776L8.95802 39.4183C9.27102 38.7297 10.3587 36.2648 12.221 32.0236C12.6905 30.9125 13.0974 29.9657 13.4417 29.1832C13.786 28.4007 14.0677 27.7668 14.2868 27.2817C14.6155 27.1565 14.9989 27.0939 15.4371 27.0939C15.7345 27.0939 15.9974 27.1487 16.2259 27.2582C16.4512 27.3678 16.5717 27.5008 16.5874 27.6573L16.6343 40.8972ZM22.2214 43.8316C21.9084 43.8316 21.6502 43.7377 21.4467 43.5499C21.2433 43.3621 21.1415 43.1117 21.1415 42.7987L21.1181 30.0283C21.1181 28.9484 21.0163 28.1111 20.8129 27.5164C21.1415 27.2347 21.5093 27.0939 21.9162 27.0939C22.2449 27.0939 22.5109 27.1847 22.7144 27.3662C22.9178 27.5446 23.0195 27.7981 23.0195 28.1268V40.8972C23.0195 42.0396 23.1213 42.8769 23.3247 43.409C22.9961 43.6907 22.6283 43.8316 22.2214 43.8316ZM31.7287 43.8785C29.9885 43.8785 28.677 43.553 27.7943 42.9019C26.9117 42.254 26.4704 41.4215 26.4704 40.4042C26.4704 39.4965 26.9086 39.0427 27.7849 39.0427C27.9571 39.0427 28.0979 39.0505 28.2075 39.0661C28.1292 39.3009 28.1058 39.6295 28.1371 40.0521C28.184 40.9598 28.5393 41.6797 29.2028 42.2118C29.8695 42.7439 30.7741 43.0099 31.9165 43.0099C32.9463 43.0099 33.7711 42.7674 34.3908 42.2822C35.0105 41.7971 35.3204 41.085 35.3204 40.146C35.3204 39.5356 35.1827 39.0114 34.9073 38.5732C34.6349 38.135 34.2437 37.7281 33.7335 37.3525C33.2265 36.9769 32.5034 36.5308 31.5644 36.0144C30.5002 35.4197 29.6629 34.8985 29.0526 34.451C28.4422 34.0065 27.9571 33.4947 27.5971 32.9157C27.2372 32.3366 27.0572 31.648 27.0572 30.8499C27.0572 29.5666 27.5267 28.6041 28.4657 27.9625C29.4047 27.3208 30.5941 27 32.0339 27C33.4424 27 34.5723 27.2582 35.4237 27.7747C36.2782 28.2911 36.7054 29.0032 36.7054 29.9109C36.7054 30.5682 36.3924 30.9281 35.7664 30.9907C35.6381 31.022 35.5348 31.0377 35.4566 31.0377C35.3658 31.0377 35.2265 31.022 35.0387 30.9907C35.0825 30.8186 35.1044 30.6621 35.1044 30.5212C35.1044 30.3334 35.0825 30.1613 35.0387 30.0048C34.9761 29.3318 34.6553 28.8076 34.0762 28.432C33.4972 28.0564 32.7538 27.8686 31.8461 27.8686C31.0167 27.8686 30.3077 28.0564 29.7193 28.432C29.134 28.8076 28.8413 29.4179 28.8413 30.263C28.8413 30.8577 28.99 31.3773 29.2873 31.8218C29.5847 32.2693 29.9838 32.6653 30.4846 33.0096C30.9822 33.3539 31.6943 33.7843 32.6208 34.3007C33.6067 34.8328 34.4205 35.3336 35.0622 35.8031C35.7038 36.2726 36.2203 36.8204 36.6115 37.4464C37.0028 38.0724 37.1984 38.8001 37.1984 39.6295C37.1984 40.3807 37.0137 41.0772 36.6444 41.7188C36.2782 42.3605 35.6866 42.88 34.8697 43.2775C34.059 43.6782 33.012 43.8785 31.7287 43.8785ZM49.9876 27.3052C50.2067 27.3052 50.3162 27.4773 50.3162 27.8216C50.3162 28.0564 50.2662 28.2911 50.166 28.5259C50.0627 28.7606 49.9328 28.9093 49.7763 28.9719L49.166 28.831C47.5384 28.4711 46.2942 28.2598 45.4334 28.1972L45.4569 40.8972C45.4569 42.0396 45.5586 42.8769 45.7621 43.409C45.4334 43.6907 45.0657 43.8316 44.6588 43.8316C44.3458 43.8316 44.0875 43.7377 43.8841 43.5499C43.6806 43.3621 43.5789 43.1117 43.5789 42.7987L43.5554 28.1972C42.992 28.2442 42.4333 28.3193 41.8793 28.4226C41.3222 28.5227 40.6132 28.6667 39.7525 28.8545L39.236 28.9719C39.0795 28.9093 38.9512 28.7606 38.8511 28.5259C38.7478 28.2911 38.6961 28.0564 38.6961 27.8216C38.6961 27.4773 38.8057 27.3052 39.0248 27.3052H49.9876ZM58.3212 43.8785C56.2867 43.8785 54.7374 43.1743 53.6732 41.7658C52.609 40.3573 52.0769 38.2523 52.0769 35.451C52.0769 32.634 52.609 30.5212 53.6732 29.1127C54.7374 27.7042 56.2867 27 58.3212 27C60.3714 27 61.9285 27.7042 62.9927 29.1127C64.0569 30.5212 64.589 32.634 64.589 35.451C64.589 38.268 64.0569 40.376 62.9927 41.7751C61.9285 43.1774 60.3714 43.8785 58.3212 43.8785ZM58.3212 43.0099C59.7141 43.0099 60.7595 42.3949 61.4575 41.1648C62.1523 39.9378 62.4997 38.0332 62.4997 35.451C62.4997 32.8531 62.1523 30.9391 61.4575 29.709C60.7595 28.4821 59.7141 27.8686 58.3212 27.8686C56.944 27.8686 55.908 28.4867 55.2131 29.7231C54.5151 30.9594 54.1661 32.8687 54.1661 35.451C54.1661 38.0332 54.5151 39.9378 55.2131 41.1648C55.908 42.3949 56.944 43.0099 58.3212 43.0099ZM79.0027 43.8785C76.9056 43.8785 75.2967 43.1539 74.1762 41.7047C73.0588 40.2587 72.5001 38.1741 72.5001 35.451C72.5001 32.7279 73.0713 30.6386 74.2138 29.1832C75.3562 27.7277 76.9682 27 79.0496 27C79.8321 27 80.5755 27.1049 81.2797 27.3146C81.984 27.5274 82.5505 27.8138 82.9793 28.1737C83.4113 28.5337 83.6272 28.9171 83.6272 29.324C83.6272 29.6527 83.4864 29.9265 83.2047 30.1456C82.923 30.3647 82.5552 30.4508 82.1014 30.4039C81.9762 29.5901 81.6475 28.9641 81.1154 28.5259C80.5833 28.0877 79.9104 27.8686 79.0966 27.8686C76.0918 27.8686 74.5894 30.396 74.5894 35.451C74.5894 40.4903 76.0839 43.0099 79.0731 43.0099C80.419 43.0099 81.3345 42.5451 81.8197 41.6155C82.3048 40.6828 82.5474 39.6061 82.5474 38.3854C82.5474 36.4917 81.9683 35.4197 80.8102 35.1693C80.8728 34.9345 81.0137 34.7577 81.2328 34.6388C81.4519 34.5229 81.7258 34.465 82.0544 34.465C82.7587 34.465 83.3377 34.7514 83.7916 35.3242C84.2454 35.8939 84.4723 36.7969 84.4723 38.0332C84.4723 39.0661 84.2767 40.0286 83.8855 40.9207C83.4942 41.8127 82.8917 42.5295 82.0779 43.071C81.2641 43.6093 80.239 43.8785 79.0027 43.8785ZM99.3508 42.024C99.4447 42.2118 99.4916 42.4152 99.4916 42.6343C99.4916 43.0099 99.3351 43.3026 99.0221 43.5123C98.7091 43.7251 98.3961 43.8316 98.0831 43.8316C97.5041 43.8316 97.0471 43.6469 96.7122 43.2775C96.3741 42.9113 96.0408 42.3213 95.7121 41.5075L94.6323 38.7375C94.4132 38.2054 94.2144 37.7907 94.036 37.4933C93.8545 37.196 93.5759 36.9409 93.2003 36.728C92.8247 36.5183 92.3161 36.4135 91.6745 36.4135L89.9373 36.39V40.9676C89.9373 41.3432 89.9608 41.7736 90.0077 42.2587C90.0547 42.7439 90.1329 43.1273 90.2425 43.409C90.1329 43.5186 89.9843 43.6172 89.7965 43.7048C89.6087 43.7893 89.3974 43.8316 89.1626 43.8316C88.834 43.8316 88.5679 43.7377 88.3645 43.5499C88.161 43.3621 88.0515 43.1117 88.0358 42.7987V30.0283C88.0358 29.6527 88.0124 29.2176 87.9654 28.7231C87.9185 28.2317 87.8402 27.8294 87.7307 27.5164C88.388 27.1721 89.5382 27 91.1815 27C93.4194 27 95.0705 27.3474 96.1347 28.0423C97.1989 28.7403 97.731 29.8718 97.731 31.4368C97.731 32.5636 97.407 33.5182 96.7591 34.3007C96.1081 35.0832 95.2348 35.6153 94.1393 35.897C94.6871 36.0535 95.13 36.3305 95.468 36.728C95.8029 37.1287 96.1112 37.642 96.3929 38.268L97.5667 41.038C97.7545 41.4919 97.9344 41.8158 98.1066 42.0099C98.2787 42.2071 98.4665 42.3135 98.67 42.3292C98.9517 42.3292 99.1786 42.2274 99.3508 42.024ZM89.9373 35.5449L91.7684 35.5684C92.9108 35.5371 93.8467 35.1615 94.576 34.4416C95.3021 33.7217 95.6652 32.7748 95.6652 31.6011C95.6652 30.3178 95.3178 29.371 94.6229 28.7606C93.9249 28.1503 92.8091 27.8451 91.2754 27.8451C90.665 27.8451 90.219 27.8686 89.9373 27.9155V35.5449ZM110.736 41.8831C110.861 41.9457 110.96 42.0662 111.032 42.2446C111.101 42.4262 111.135 42.6187 111.135 42.8221C111.135 43.0412 111.096 43.2212 111.018 43.3621C110.94 43.5029 110.822 43.5733 110.666 43.5733H103.201C102.872 43.5733 102.611 43.4794 102.417 43.2916C102.219 43.1038 102.121 42.8456 102.121 42.517L102.097 30.2161C102.097 29.1988 101.996 28.3928 101.792 27.7981C102.011 27.6103 102.235 27.4805 102.464 27.4085C102.689 27.3396 103.005 27.3052 103.412 27.3052H110.501C110.611 27.3052 110.697 27.3553 110.76 27.4554C110.822 27.5587 110.854 27.6886 110.854 27.8451C110.854 28.0642 110.803 28.2911 110.703 28.5259C110.6 28.7606 110.47 28.9093 110.314 28.9719C108.076 28.5806 105.963 28.3772 103.975 28.3615V34.465H109.75C109.797 34.6528 109.821 34.8406 109.821 35.0284C109.821 35.2162 109.797 35.404 109.75 35.5918H103.999V42.5404C105.955 42.5248 108.201 42.3057 110.736 41.8831ZM123.342 41.8831C123.467 41.9457 123.564 42.0662 123.633 42.2446C123.705 42.4262 123.741 42.6187 123.741 42.8221C123.741 43.0412 123.702 43.2212 123.624 43.3621C123.546 43.5029 123.428 43.5733 123.272 43.5733H115.807C115.478 43.5733 115.215 43.4794 115.018 43.2916C114.824 43.1038 114.727 42.8456 114.727 42.517L114.703 30.2161C114.703 29.1988 114.602 28.3928 114.398 27.7981C114.617 27.6103 114.84 27.4805 115.065 27.4085C115.293 27.3396 115.611 27.3052 116.018 27.3052H123.107C123.217 27.3052 123.303 27.3553 123.366 27.4554C123.428 27.5587 123.46 27.6886 123.46 27.8451C123.46 28.0642 123.408 28.2911 123.305 28.5259C123.204 28.7606 123.076 28.9093 122.92 28.9719C120.682 28.5806 118.569 28.3772 116.581 28.3615V34.465H122.356C122.403 34.6528 122.427 34.8406 122.427 35.0284C122.427 35.2162 122.403 35.404 122.356 35.5918H116.605V42.5404C118.561 42.5248 120.807 42.3057 123.342 41.8831ZM127.896 43.8316C127.568 43.8316 127.286 43.7377 127.051 43.5499C127.239 42.9865 127.333 42.1022 127.333 40.8972L127.309 30.1456C127.309 28.8936 127.255 27.9703 127.145 27.3756C127.317 27.2191 127.615 27.1408 128.037 27.1408C128.35 27.1408 128.538 27.18 128.601 27.2582C133.421 34.1912 136.473 38.761 137.756 40.9676L137.357 29.2771C137.325 28.745 137.365 28.2911 137.474 27.9155C137.584 27.5399 137.756 27.2973 137.991 27.1878C138.053 27.1721 138.163 27.1643 138.319 27.1643C138.52 27.1643 138.692 27.1956 138.836 27.2582C138.82 27.4304 138.826 27.7434 138.854 28.1972L138.883 28.9484V40.9207C138.883 42.1257 138.922 43.0021 139 43.5499C138.937 43.6281 138.82 43.6907 138.648 43.7377C138.473 43.7846 138.3 43.8081 138.131 43.8081C137.975 43.8081 137.818 43.7768 137.662 43.7142C136.128 41.8518 134.527 39.664 132.859 37.1506C131.194 34.6403 129.743 32.3366 128.507 30.2395L128.859 42.6813C128.871 43.0256 128.781 43.3026 128.587 43.5123C128.389 43.7251 128.159 43.8316 127.896 43.8316Z"/>
</mask>
<path d="M16.6343 40.8972C16.6343 42.024 16.7282 42.8613 16.916 43.409C16.5874 43.6907 16.2196 43.8316 15.8127 43.8316C15.5154 43.8316 15.2728 43.7377 15.085 43.5499C14.8972 43.3621 14.8033 43.1117 14.8033 42.7987L14.7563 29.5822L9.61532 41.0146C9.23972 41.1554 8.89542 41.2258 8.58242 41.2258C8.30072 41.2258 8.05032 41.1711 7.83122 41.0615C6.06277 37.7124 4.21607 33.9095 2.29112 29.6527L2.3146 40.8972C2.3146 42.0709 2.41632 42.9552 2.61977 43.5499C2.40067 43.7377 2.14245 43.8316 1.8451 43.8316C1.39125 43.8316 1.16433 43.542 1.16433 42.963L1.14085 29.9813C1.14085 28.8702 1.0939 28.0016 1 27.3756C1.1878 27.1878 1.60252 27.0939 2.24417 27.0939C2.66672 27.0939 2.99537 27.2191 3.23012 27.4695L5.17855 31.5776L8.95802 39.4183C9.27102 38.7297 10.3587 36.2648 12.221 32.0236C12.6905 30.9125 13.0974 29.9657 13.4417 29.1832C13.786 28.4007 14.0677 27.7668 14.2868 27.2817C14.6155 27.1565 14.9989 27.0939 15.4371 27.0939C15.7345 27.0939 15.9974 27.1487 16.2259 27.2582C16.4512 27.3678 16.5717 27.5008 16.5874 27.6573L16.6343 40.8972ZM22.2214 43.8316C21.9084 43.8316 21.6502 43.7377 21.4467 43.5499C21.2433 43.3621 21.1415 43.1117 21.1415 42.7987L21.1181 30.0283C21.1181 28.9484 21.0163 28.1111 20.8129 27.5164C21.1415 27.2347 21.5093 27.0939 21.9162 27.0939C22.2449 27.0939 22.5109 27.1847 22.7144 27.3662C22.9178 27.5446 23.0195 27.7981 23.0195 28.1268V40.8972C23.0195 42.0396 23.1213 42.8769 23.3247 43.409C22.9961 43.6907 22.6283 43.8316 22.2214 43.8316ZM31.7287 43.8785C29.9885 43.8785 28.677 43.553 27.7943 42.9019C26.9117 42.254 26.4704 41.4215 26.4704 40.4042C26.4704 39.4965 26.9086 39.0427 27.7849 39.0427C27.9571 39.0427 28.0979 39.0505 28.2075 39.0661C28.1292 39.3009 28.1058 39.6295 28.1371 40.0521C28.184 40.9598 28.5393 41.6797 29.2028 42.2118C29.8695 42.7439 30.7741 43.0099 31.9165 43.0099C32.9463 43.0099 33.7711 42.7674 34.3908 42.2822C35.0105 41.7971 35.3204 41.085 35.3204 40.146C35.3204 39.5356 35.1827 39.0114 34.9073 38.5732C34.6349 38.135 34.2437 37.7281 33.7335 37.3525C33.2265 36.9769 32.5034 36.5308 31.5644 36.0144C30.5002 35.4197 29.6629 34.8985 29.0526 34.451C28.4422 34.0065 27.9571 33.4947 27.5971 32.9157C27.2372 32.3366 27.0572 31.648 27.0572 30.8499C27.0572 29.5666 27.5267 28.6041 28.4657 27.9625C29.4047 27.3208 30.5941 27 32.0339 27C33.4424 27 34.5723 27.2582 35.4237 27.7747C36.2782 28.2911 36.7054 29.0032 36.7054 29.9109C36.7054 30.5682 36.3924 30.9281 35.7664 30.9907C35.6381 31.022 35.5348 31.0377 35.4566 31.0377C35.3658 31.0377 35.2265 31.022 35.0387 30.9907C35.0825 30.8186 35.1044 30.6621 35.1044 30.5212C35.1044 30.3334 35.0825 30.1613 35.0387 30.0048C34.9761 29.3318 34.6553 28.8076 34.0762 28.432C33.4972 28.0564 32.7538 27.8686 31.8461 27.8686C31.0167 27.8686 30.3077 28.0564 29.7193 28.432C29.134 28.8076 28.8413 29.4179 28.8413 30.263C28.8413 30.8577 28.99 31.3773 29.2873 31.8218C29.5847 32.2693 29.9838 32.6653 30.4846 33.0096C30.9822 33.3539 31.6943 33.7843 32.6208 34.3007C33.6067 34.8328 34.4205 35.3336 35.0622 35.8031C35.7038 36.2726 36.2203 36.8204 36.6115 37.4464C37.0028 38.0724 37.1984 38.8001 37.1984 39.6295C37.1984 40.3807 37.0137 41.0772 36.6444 41.7188C36.2782 42.3605 35.6866 42.88 34.8697 43.2775C34.059 43.6782 33.012 43.8785 31.7287 43.8785ZM49.9876 27.3052C50.2067 27.3052 50.3162 27.4773 50.3162 27.8216C50.3162 28.0564 50.2662 28.2911 50.166 28.5259C50.0627 28.7606 49.9328 28.9093 49.7763 28.9719L49.166 28.831C47.5384 28.4711 46.2942 28.2598 45.4334 28.1972L45.4569 40.8972C45.4569 42.0396 45.5586 42.8769 45.7621 43.409C45.4334 43.6907 45.0657 43.8316 44.6588 43.8316C44.3458 43.8316 44.0875 43.7377 43.8841 43.5499C43.6806 43.3621 43.5789 43.1117 43.5789 42.7987L43.5554 28.1972C42.992 28.2442 42.4333 28.3193 41.8793 28.4226C41.3222 28.5227 40.6132 28.6667 39.7525 28.8545L39.236 28.9719C39.0795 28.9093 38.9512 28.7606 38.8511 28.5259C38.7478 28.2911 38.6961 28.0564 38.6961 27.8216C38.6961 27.4773 38.8057 27.3052 39.0248 27.3052H49.9876ZM58.3212 43.8785C56.2867 43.8785 54.7374 43.1743 53.6732 41.7658C52.609 40.3573 52.0769 38.2523 52.0769 35.451C52.0769 32.634 52.609 30.5212 53.6732 29.1127C54.7374 27.7042 56.2867 27 58.3212 27C60.3714 27 61.9285 27.7042 62.9927 29.1127C64.0569 30.5212 64.589 32.634 64.589 35.451C64.589 38.268 64.0569 40.376 62.9927 41.7751C61.9285 43.1774 60.3714 43.8785 58.3212 43.8785ZM58.3212 43.0099C59.7141 43.0099 60.7595 42.3949 61.4575 41.1648C62.1523 39.9378 62.4997 38.0332 62.4997 35.451C62.4997 32.8531 62.1523 30.9391 61.4575 29.709C60.7595 28.4821 59.7141 27.8686 58.3212 27.8686C56.944 27.8686 55.908 28.4867 55.2131 29.7231C54.5151 30.9594 54.1661 32.8687 54.1661 35.451C54.1661 38.0332 54.5151 39.9378 55.2131 41.1648C55.908 42.3949 56.944 43.0099 58.3212 43.0099ZM79.0027 43.8785C76.9056 43.8785 75.2967 43.1539 74.1762 41.7047C73.0588 40.2587 72.5001 38.1741 72.5001 35.451C72.5001 32.7279 73.0713 30.6386 74.2138 29.1832C75.3562 27.7277 76.9682 27 79.0496 27C79.8321 27 80.5755 27.1049 81.2797 27.3146C81.984 27.5274 82.5505 27.8138 82.9793 28.1737C83.4113 28.5337 83.6272 28.9171 83.6272 29.324C83.6272 29.6527 83.4864 29.9265 83.2047 30.1456C82.923 30.3647 82.5552 30.4508 82.1014 30.4039C81.9762 29.5901 81.6475 28.9641 81.1154 28.5259C80.5833 28.0877 79.9104 27.8686 79.0966 27.8686C76.0918 27.8686 74.5894 30.396 74.5894 35.451C74.5894 40.4903 76.0839 43.0099 79.0731 43.0099C80.419 43.0099 81.3345 42.5451 81.8197 41.6155C82.3048 40.6828 82.5474 39.6061 82.5474 38.3854C82.5474 36.4917 81.9683 35.4197 80.8102 35.1693C80.8728 34.9345 81.0137 34.7577 81.2328 34.6388C81.4519 34.5229 81.7258 34.465 82.0544 34.465C82.7587 34.465 83.3377 34.7514 83.7916 35.3242C84.2454 35.8939 84.4723 36.7969 84.4723 38.0332C84.4723 39.0661 84.2767 40.0286 83.8855 40.9207C83.4942 41.8127 82.8917 42.5295 82.0779 43.071C81.2641 43.6093 80.239 43.8785 79.0027 43.8785ZM99.3508 42.024C99.4447 42.2118 99.4916 42.4152 99.4916 42.6343C99.4916 43.0099 99.3351 43.3026 99.0221 43.5123C98.7091 43.7251 98.3961 43.8316 98.0831 43.8316C97.5041 43.8316 97.0471 43.6469 96.7122 43.2775C96.3741 42.9113 96.0408 42.3213 95.7121 41.5075L94.6323 38.7375C94.4132 38.2054 94.2144 37.7907 94.036 37.4933C93.8545 37.196 93.5759 36.9409 93.2003 36.728C92.8247 36.5183 92.3161 36.4135 91.6745 36.4135L89.9373 36.39V40.9676C89.9373 41.3432 89.9608 41.7736 90.0077 42.2587C90.0547 42.7439 90.1329 43.1273 90.2425 43.409C90.1329 43.5186 89.9843 43.6172 89.7965 43.7048C89.6087 43.7893 89.3974 43.8316 89.1626 43.8316C88.834 43.8316 88.5679 43.7377 88.3645 43.5499C88.161 43.3621 88.0515 43.1117 88.0358 42.7987V30.0283C88.0358 29.6527 88.0124 29.2176 87.9654 28.7231C87.9185 28.2317 87.8402 27.8294 87.7307 27.5164C88.388 27.1721 89.5382 27 91.1815 27C93.4194 27 95.0705 27.3474 96.1347 28.0423C97.1989 28.7403 97.731 29.8718 97.731 31.4368C97.731 32.5636 97.407 33.5182 96.7591 34.3007C96.1081 35.0832 95.2348 35.6153 94.1393 35.897C94.6871 36.0535 95.13 36.3305 95.468 36.728C95.8029 37.1287 96.1112 37.642 96.3929 38.268L97.5667 41.038C97.7545 41.4919 97.9344 41.8158 98.1066 42.0099C98.2787 42.2071 98.4665 42.3135 98.67 42.3292C98.9517 42.3292 99.1786 42.2274 99.3508 42.024ZM89.9373 35.5449L91.7684 35.5684C92.9108 35.5371 93.8467 35.1615 94.576 34.4416C95.3021 33.7217 95.6652 32.7748 95.6652 31.6011C95.6652 30.3178 95.3178 29.371 94.6229 28.7606C93.9249 28.1503 92.8091 27.8451 91.2754 27.8451C90.665 27.8451 90.219 27.8686 89.9373 27.9155V35.5449ZM110.736 41.8831C110.861 41.9457 110.96 42.0662 111.032 42.2446C111.101 42.4262 111.135 42.6187 111.135 42.8221C111.135 43.0412 111.096 43.2212 111.018 43.3621C110.94 43.5029 110.822 43.5733 110.666 43.5733H103.201C102.872 43.5733 102.611 43.4794 102.417 43.2916C102.219 43.1038 102.121 42.8456 102.121 42.517L102.097 30.2161C102.097 29.1988 101.996 28.3928 101.792 27.7981C102.011 27.6103 102.235 27.4805 102.464 27.4085C102.689 27.3396 103.005 27.3052 103.412 27.3052H110.501C110.611 27.3052 110.697 27.3553 110.76 27.4554C110.822 27.5587 110.854 27.6886 110.854 27.8451C110.854 28.0642 110.803 28.2911 110.703 28.5259C110.6 28.7606 110.47 28.9093 110.314 28.9719C108.076 28.5806 105.963 28.3772 103.975 28.3615V34.465H109.75C109.797 34.6528 109.821 34.8406 109.821 35.0284C109.821 35.2162 109.797 35.404 109.75 35.5918H103.999V42.5404C105.955 42.5248 108.201 42.3057 110.736 41.8831ZM123.342 41.8831C123.467 41.9457 123.564 42.0662 123.633 42.2446C123.705 42.4262 123.741 42.6187 123.741 42.8221C123.741 43.0412 123.702 43.2212 123.624 43.3621C123.546 43.5029 123.428 43.5733 123.272 43.5733H115.807C115.478 43.5733 115.215 43.4794 115.018 43.2916C114.824 43.1038 114.727 42.8456 114.727 42.517L114.703 30.2161C114.703 29.1988 114.602 28.3928 114.398 27.7981C114.617 27.6103 114.84 27.4805 115.065 27.4085C115.293 27.3396 115.611 27.3052 116.018 27.3052H123.107C123.217 27.3052 123.303 27.3553 123.366 27.4554C123.428 27.5587 123.46 27.6886 123.46 27.8451C123.46 28.0642 123.408 28.2911 123.305 28.5259C123.204 28.7606 123.076 28.9093 122.92 28.9719C120.682 28.5806 118.569 28.3772 116.581 28.3615V34.465H122.356C122.403 34.6528 122.427 34.8406 122.427 35.0284C122.427 35.2162 122.403 35.404 122.356 35.5918H116.605V42.5404C118.561 42.5248 120.807 42.3057 123.342 41.8831ZM127.896 43.8316C127.568 43.8316 127.286 43.7377 127.051 43.5499C127.239 42.9865 127.333 42.1022 127.333 40.8972L127.309 30.1456C127.309 28.8936 127.255 27.9703 127.145 27.3756C127.317 27.2191 127.615 27.1408 128.037 27.1408C128.35 27.1408 128.538 27.18 128.601 27.2582C133.421 34.1912 136.473 38.761 137.756 40.9676L137.357 29.2771C137.325 28.745 137.365 28.2911 137.474 27.9155C137.584 27.5399 137.756 27.2973 137.991 27.1878C138.053 27.1721 138.163 27.1643 138.319 27.1643C138.52 27.1643 138.692 27.1956 138.836 27.2582C138.82 27.4304 138.826 27.7434 138.854 28.1972L138.883 28.9484V40.9207C138.883 42.1257 138.922 43.0021 139 43.5499C138.937 43.6281 138.82 43.6907 138.648 43.7377C138.473 43.7846 138.3 43.8081 138.131 43.8081C137.975 43.8081 137.818 43.7768 137.662 43.7142C136.128 41.8518 134.527 39.664 132.859 37.1506C131.194 34.6403 129.743 32.3366 128.507 30.2395L128.859 42.6813C128.871 43.0256 128.781 43.3026 128.587 43.5123C128.389 43.7251 128.159 43.8316 127.896 43.8316Z" fill="#007D43"/>
<path d="M16.6343 40.8972C16.6343 42.024 16.7282 42.8613 16.916 43.409C16.5874 43.6907 16.2196 43.8316 15.8127 43.8316C15.5154 43.8316 15.2728 43.7377 15.085 43.5499C14.8972 43.3621 14.8033 43.1117 14.8033 42.7987L14.7563 29.5822L9.61532 41.0146C9.23972 41.1554 8.89542 41.2258 8.58242 41.2258C8.30072 41.2258 8.05032 41.1711 7.83122 41.0615C6.06277 37.7124 4.21607 33.9095 2.29112 29.6527L2.3146 40.8972C2.3146 42.0709 2.41632 42.9552 2.61977 43.5499C2.40067 43.7377 2.14245 43.8316 1.8451 43.8316C1.39125 43.8316 1.16433 43.542 1.16433 42.963L1.14085 29.9813C1.14085 28.8702 1.0939 28.0016 1 27.3756C1.1878 27.1878 1.60252 27.0939 2.24417 27.0939C2.66672 27.0939 2.99537 27.2191 3.23012 27.4695L5.17855 31.5776L8.95802 39.4183C9.27102 38.7297 10.3587 36.2648 12.221 32.0236C12.6905 30.9125 13.0974 29.9657 13.4417 29.1832C13.786 28.4007 14.0677 27.7668 14.2868 27.2817C14.6155 27.1565 14.9989 27.0939 15.4371 27.0939C15.7345 27.0939 15.9974 27.1487 16.2259 27.2582C16.4512 27.3678 16.5717 27.5008 16.5874 27.6573L16.6343 40.8972ZM22.2214 43.8316C21.9084 43.8316 21.6502 43.7377 21.4467 43.5499C21.2433 43.3621 21.1415 43.1117 21.1415 42.7987L21.1181 30.0283C21.1181 28.9484 21.0163 28.1111 20.8129 27.5164C21.1415 27.2347 21.5093 27.0939 21.9162 27.0939C22.2449 27.0939 22.5109 27.1847 22.7144 27.3662C22.9178 27.5446 23.0195 27.7981 23.0195 28.1268V40.8972C23.0195 42.0396 23.1213 42.8769 23.3247 43.409C22.9961 43.6907 22.6283 43.8316 22.2214 43.8316ZM31.7287 43.8785C29.9885 43.8785 28.677 43.553 27.7943 42.9019C26.9117 42.254 26.4704 41.4215 26.4704 40.4042C26.4704 39.4965 26.9086 39.0427 27.7849 39.0427C27.9571 39.0427 28.0979 39.0505 28.2075 39.0661C28.1292 39.3009 28.1058 39.6295 28.1371 40.0521C28.184 40.9598 28.5393 41.6797 29.2028 42.2118C29.8695 42.7439 30.7741 43.0099 31.9165 43.0099C32.9463 43.0099 33.7711 42.7674 34.3908 42.2822C35.0105 41.7971 35.3204 41.085 35.3204 40.146C35.3204 39.5356 35.1827 39.0114 34.9073 38.5732C34.6349 38.135 34.2437 37.7281 33.7335 37.3525C33.2265 36.9769 32.5034 36.5308 31.5644 36.0144C30.5002 35.4197 29.6629 34.8985 29.0526 34.451C28.4422 34.0065 27.9571 33.4947 27.5971 32.9157C27.2372 32.3366 27.0572 31.648 27.0572 30.8499C27.0572 29.5666 27.5267 28.6041 28.4657 27.9625C29.4047 27.3208 30.5941 27 32.0339 27C33.4424 27 34.5723 27.2582 35.4237 27.7747C36.2782 28.2911 36.7054 29.0032 36.7054 29.9109C36.7054 30.5682 36.3924 30.9281 35.7664 30.9907C35.6381 31.022 35.5348 31.0377 35.4566 31.0377C35.3658 31.0377 35.2265 31.022 35.0387 30.9907C35.0825 30.8186 35.1044 30.6621 35.1044 30.5212C35.1044 30.3334 35.0825 30.1613 35.0387 30.0048C34.9761 29.3318 34.6553 28.8076 34.0762 28.432C33.4972 28.0564 32.7538 27.8686 31.8461 27.8686C31.0167 27.8686 30.3077 28.0564 29.7193 28.432C29.134 28.8076 28.8413 29.4179 28.8413 30.263C28.8413 30.8577 28.99 31.3773 29.2873 31.8218C29.5847 32.2693 29.9838 32.6653 30.4846 33.0096C30.9822 33.3539 31.6943 33.7843 32.6208 34.3007C33.6067 34.8328 34.4205 35.3336 35.0622 35.8031C35.7038 36.2726 36.2203 36.8204 36.6115 37.4464C37.0028 38.0724 37.1984 38.8001 37.1984 39.6295C37.1984 40.3807 37.0137 41.0772 36.6444 41.7188C36.2782 42.3605 35.6866 42.88 34.8697 43.2775C34.059 43.6782 33.012 43.8785 31.7287 43.8785ZM49.9876 27.3052C50.2067 27.3052 50.3162 27.4773 50.3162 27.8216C50.3162 28.0564 50.2662 28.2911 50.166 28.5259C50.0627 28.7606 49.9328 28.9093 49.7763 28.9719L49.166 28.831C47.5384 28.4711 46.2942 28.2598 45.4334 28.1972L45.4569 40.8972C45.4569 42.0396 45.5586 42.8769 45.7621 43.409C45.4334 43.6907 45.0657 43.8316 44.6588 43.8316C44.3458 43.8316 44.0875 43.7377 43.8841 43.5499C43.6806 43.3621 43.5789 43.1117 43.5789 42.7987L43.5554 28.1972C42.992 28.2442 42.4333 28.3193 41.8793 28.4226C41.3222 28.5227 40.6132 28.6667 39.7525 28.8545L39.236 28.9719C39.0795 28.9093 38.9512 28.7606 38.8511 28.5259C38.7478 28.2911 38.6961 28.0564 38.6961 27.8216C38.6961 27.4773 38.8057 27.3052 39.0248 27.3052H49.9876ZM58.3212 43.8785C56.2867 43.8785 54.7374 43.1743 53.6732 41.7658C52.609 40.3573 52.0769 38.2523 52.0769 35.451C52.0769 32.634 52.609 30.5212 53.6732 29.1127C54.7374 27.7042 56.2867 27 58.3212 27C60.3714 27 61.9285 27.7042 62.9927 29.1127C64.0569 30.5212 64.589 32.634 64.589 35.451C64.589 38.268 64.0569 40.376 62.9927 41.7751C61.9285 43.1774 60.3714 43.8785 58.3212 43.8785ZM58.3212 43.0099C59.7141 43.0099 60.7595 42.3949 61.4575 41.1648C62.1523 39.9378 62.4997 38.0332 62.4997 35.451C62.4997 32.8531 62.1523 30.9391 61.4575 29.709C60.7595 28.4821 59.7141 27.8686 58.3212 27.8686C56.944 27.8686 55.908 28.4867 55.2131 29.7231C54.5151 30.9594 54.1661 32.8687 54.1661 35.451C54.1661 38.0332 54.5151 39.9378 55.2131 41.1648C55.908 42.3949 56.944 43.0099 58.3212 43.0099ZM79.0027 43.8785C76.9056 43.8785 75.2967 43.1539 74.1762 41.7047C73.0588 40.2587 72.5001 38.1741 72.5001 35.451C72.5001 32.7279 73.0713 30.6386 74.2138 29.1832C75.3562 27.7277 76.9682 27 79.0496 27C79.8321 27 80.5755 27.1049 81.2797 27.3146C81.984 27.5274 82.5505 27.8138 82.9793 28.1737C83.4113 28.5337 83.6272 28.9171 83.6272 29.324C83.6272 29.6527 83.4864 29.9265 83.2047 30.1456C82.923 30.3647 82.5552 30.4508 82.1014 30.4039C81.9762 29.5901 81.6475 28.9641 81.1154 28.5259C80.5833 28.0877 79.9104 27.8686 79.0966 27.8686C76.0918 27.8686 74.5894 30.396 74.5894 35.451C74.5894 40.4903 76.0839 43.0099 79.0731 43.0099C80.419 43.0099 81.3345 42.5451 81.8197 41.6155C82.3048 40.6828 82.5474 39.6061 82.5474 38.3854C82.5474 36.4917 81.9683 35.4197 80.8102 35.1693C80.8728 34.9345 81.0137 34.7577 81.2328 34.6388C81.4519 34.5229 81.7258 34.465 82.0544 34.465C82.7587 34.465 83.3377 34.7514 83.7916 35.3242C84.2454 35.8939 84.4723 36.7969 84.4723 38.0332C84.4723 39.0661 84.2767 40.0286 83.8855 40.9207C83.4942 41.8127 82.8917 42.5295 82.0779 43.071C81.2641 43.6093 80.239 43.8785 79.0027 43.8785ZM99.3508 42.024C99.4447 42.2118 99.4916 42.4152 99.4916 42.6343C99.4916 43.0099 99.3351 43.3026 99.0221 43.5123C98.7091 43.7251 98.3961 43.8316 98.0831 43.8316C97.5041 43.8316 97.0471 43.6469 96.7122 43.2775C96.3741 42.9113 96.0408 42.3213 95.7121 41.5075L94.6323 38.7375C94.4132 38.2054 94.2144 37.7907 94.036 37.4933C93.8545 37.196 93.5759 36.9409 93.2003 36.728C92.8247 36.5183 92.3161 36.4135 91.6745 36.4135L89.9373 36.39V40.9676C89.9373 41.3432 89.9608 41.7736 90.0077 42.2587C90.0547 42.7439 90.1329 43.1273 90.2425 43.409C90.1329 43.5186 89.9843 43.6172 89.7965 43.7048C89.6087 43.7893 89.3974 43.8316 89.1626 43.8316C88.834 43.8316 88.5679 43.7377 88.3645 43.5499C88.161 43.3621 88.0515 43.1117 88.0358 42.7987V30.0283C88.0358 29.6527 88.0124 29.2176 87.9654 28.7231C87.9185 28.2317 87.8402 27.8294 87.7307 27.5164C88.388 27.1721 89.5382 27 91.1815 27C93.4194 27 95.0705 27.3474 96.1347 28.0423C97.1989 28.7403 97.731 29.8718 97.731 31.4368C97.731 32.5636 97.407 33.5182 96.7591 34.3007C96.1081 35.0832 95.2348 35.6153 94.1393 35.897C94.6871 36.0535 95.13 36.3305 95.468 36.728C95.8029 37.1287 96.1112 37.642 96.3929 38.268L97.5667 41.038C97.7545 41.4919 97.9344 41.8158 98.1066 42.0099C98.2787 42.2071 98.4665 42.3135 98.67 42.3292C98.9517 42.3292 99.1786 42.2274 99.3508 42.024ZM89.9373 35.5449L91.7684 35.5684C92.9108 35.5371 93.8467 35.1615 94.576 34.4416C95.3021 33.7217 95.6652 32.7748 95.6652 31.6011C95.6652 30.3178 95.3178 29.371 94.6229 28.7606C93.9249 28.1503 92.8091 27.8451 91.2754 27.8451C90.665 27.8451 90.219 27.8686 89.9373 27.9155V35.5449ZM110.736 41.8831C110.861 41.9457 110.96 42.0662 111.032 42.2446C111.101 42.4262 111.135 42.6187 111.135 42.8221C111.135 43.0412 111.096 43.2212 111.018 43.3621C110.94 43.5029 110.822 43.5733 110.666 43.5733H103.201C102.872 43.5733 102.611 43.4794 102.417 43.2916C102.219 43.1038 102.121 42.8456 102.121 42.517L102.097 30.2161C102.097 29.1988 101.996 28.3928 101.792 27.7981C102.011 27.6103 102.235 27.4805 102.464 27.4085C102.689 27.3396 103.005 27.3052 103.412 27.3052H110.501C110.611 27.3052 110.697 27.3553 110.76 27.4554C110.822 27.5587 110.854 27.6886 110.854 27.8451C110.854 28.0642 110.803 28.2911 110.703 28.5259C110.6 28.7606 110.47 28.9093 110.314 28.9719C108.076 28.5806 105.963 28.3772 103.975 28.3615V34.465H109.75C109.797 34.6528 109.821 34.8406 109.821 35.0284C109.821 35.2162 109.797 35.404 109.75 35.5918H103.999V42.5404C105.955 42.5248 108.201 42.3057 110.736 41.8831ZM123.342 41.8831C123.467 41.9457 123.564 42.0662 123.633 42.2446C123.705 42.4262 123.741 42.6187 123.741 42.8221C123.741 43.0412 123.702 43.2212 123.624 43.3621C123.546 43.5029 123.428 43.5733 123.272 43.5733H115.807C115.478 43.5733 115.215 43.4794 115.018 43.2916C114.824 43.1038 114.727 42.8456 114.727 42.517L114.703 30.2161C114.703 29.1988 114.602 28.3928 114.398 27.7981C114.617 27.6103 114.84 27.4805 115.065 27.4085C115.293 27.3396 115.611 27.3052 116.018 27.3052H123.107C123.217 27.3052 123.303 27.3553 123.366 27.4554C123.428 27.5587 123.46 27.6886 123.46 27.8451C123.46 28.0642 123.408 28.2911 123.305 28.5259C123.204 28.7606 123.076 28.9093 122.92 28.9719C120.682 28.5806 118.569 28.3772 116.581 28.3615V34.465H122.356C122.403 34.6528 122.427 34.8406 122.427 35.0284C122.427 35.2162 122.403 35.404 122.356 35.5918H116.605V42.5404C118.561 42.5248 120.807 42.3057 123.342 41.8831ZM127.896 43.8316C127.568 43.8316 127.286 43.7377 127.051 43.5499C127.239 42.9865 127.333 42.1022 127.333 40.8972L127.309 30.1456C127.309 28.8936 127.255 27.9703 127.145 27.3756C127.317 27.2191 127.615 27.1408 128.037 27.1408C128.35 27.1408 128.538 27.18 128.601 27.2582C133.421 34.1912 136.473 38.761 137.756 40.9676L137.357 29.2771C137.325 28.745 137.365 28.2911 137.474 27.9155C137.584 27.5399 137.756 27.2973 137.991 27.1878C138.053 27.1721 138.163 27.1643 138.319 27.1643C138.52 27.1643 138.692 27.1956 138.836 27.2582C138.82 27.4304 138.826 27.7434 138.854 28.1972L138.883 28.9484V40.9207C138.883 42.1257 138.922 43.0021 139 43.5499C138.937 43.6281 138.82 43.6907 138.648 43.7377C138.473 43.7846 138.3 43.8081 138.131 43.8081C137.975 43.8081 137.818 43.7768 137.662 43.7142C136.128 41.8518 134.527 39.664 132.859 37.1506C131.194 34.6403 129.743 32.3366 128.507 30.2395L128.859 42.6813C128.871 43.0256 128.781 43.3026 128.587 43.5123C128.389 43.7251 128.159 43.8316 127.896 43.8316Z" stroke="#007D43" mask="url(#path-1-outside-1_288_264)"/>
<g clip-path="url(#clip1_288_264)">
<g clip-path="url(#clip2_288_264)">
<path d="M62.1125 0V23.6625H68.4226V18.93H71.5776V23.6625H77.8874V0H62.1125ZM66.8451 14.9862H63.6901V10.2537H66.8451V14.9862ZM66.8451 7.09876H63.6901V2.36625H66.8451V7.09876ZM71.5776 14.9862H68.4226V10.2537H71.5776V14.9862ZM71.5776 7.09876H68.4226V2.36625H71.5776V7.09876ZM76.3101 14.9862H73.1552V10.2537H76.3101V14.9862ZM76.3101 7.09876H73.1552V2.36625H76.3101V7.09876Z" fill="#66BF6B"/>
</g>
</g>
</g>
<defs>
<clipPath id="clip0_288_264">
<rect width="140" height="44.8266" fill="white"/>
</clipPath>
<clipPath id="clip1_288_264">
<rect width="15.7749" height="23.6625" fill="white" transform="translate(62.1125)"/>
</clipPath>
<clipPath id="clip2_288_264">
<rect width="15.7749" height="23.6625" fill="white" transform="translate(62.1125)"/>
</clipPath>
</defs>
</svg>
